# xmcd
#
# Track frame offsets: 
#        150
#        7405
#        18380
#        30950
#        43630
#        54772
#        63297
#        76685
#        88550
#        99162
#        109885
#        116945
#        129845
#        142650
#        152307
#        164725
#        173522
#        181367
#        195135
#        205840
#        216172
#        227367
#        244565
#        254780
#        268860
#
# Disc length: 3763 seconds
#
# Revision: 5
# Processed by: cddbd v1.5.2PL0 Copyright (c) Steve Scherf et al.
# Submitted via: ExactAudioCopyFreeDBPlugin 1.0
#
DISCID=390eb119
DTITLE=Various Artist - 25 Country Classics (Volume 3)
DYEAR=1900
DGENRE=Country
TTITLE0=Barbara Mandrell - Kentucky Means Paradise
TTITLE1=Patsy Cline - Stop, Look And Listen
TTITLE2=George Jones - I Can't Escape From You
TTITLE3=Kitty Wells - Making Believe
TTITLE4=Hank Locklin - Send Me The Pillow You Dream On
TTITLE5=Waylon Jennings - Abilene
TTITLE6=Don Williams - The Poso-Seco Singers - Ruby Tuesday
TTITLE7=Kenny Rogers - The First Edition - Elvira
TTITLE8=Faron Young - If You Ain't Lovin'
TTITLE9=Waylon Jennings - Dream Baby (How Long Must I Dream)
TTITLE10=Marty Robbins - Maybellene
TTITLE11=Jerry Lee Lewis - Good Rockin' Tonight
TTITLE12=Dolly Parton - Little Blossom
TTITLE13=Ned Miller - From A Jack To A King
TTITLE14=Willie Nelson - I Can't Find The Time
TTITLE15=Waylon Jennings - Love's Gonna Live Here
TTITLE16=George Jones - Jambalaya
TTITLE17=Don Williams - The Pozo Seco Singers - Where Do I Go From Here
TTITLE17=?
TTITLE18=Kenny Rogers - The First Edition - Homemade Lies
TTITLE19=Patsy Cline - Turn The Cards Slowly
TTITLE20=Stonewall Jackson - Things To Think About
TTITLE21=Johnny Lee - Your Song
TTITLE22=Willie Nelson - I Didn't Sleep A Wink
TTITLE23=George Jones - Cold, Cold Heart
TTITLE24=Gene Pitney - A Town Without Pity
EXTD=Tring
EXTT0=
EXTT1=
EXTT2=
EXTT3=
EXTT4=
EXTT5=
EXTT6=
EXTT7=
EXTT8=
EXTT9=
EXTT10=
EXTT11=
EXTT12=
EXTT13=
EXTT14=
EXTT15=
EXTT16=
EXTT17=
EXTT18=
EXTT19=
EXTT20=
EXTT21=
EXTT22=
EXTT23=
EXTT24=
PLAYORDER=
